<mxfile host="app.diagrams.net" modified="2022-07-25T06:15:10.722Z" agent="5.0 (Windows NT 10.0; Win64; x64) AppleWebKit/537.36 (KHTML, like Gecko) Chrome/103.0.0.0 Safari/537.36" etag="YzVEGwhk88p4F_QZJrQ5" version="20.2.0" type="github">
  <diagram id="Mxf_N-GtVQwXZ8piAwLi" name="第 1 页">
    <mxGraphModel dx="782" dy="492" grid="1" gridSize="10" guides="1" tooltips="1" connect="1" arrows="1" fold="1" page="1" pageScale="1" pageWidth="827" pageHeight="1169" math="0" shadow="0">
      <root>
        <mxCell id="0" />
        <mxCell id="1" parent="0" />
        <mxCell id="qMca8e3cqmEsqugtAObH-4" value="" style="edgeStyle=orthogonalEdgeStyle;rounded=0;orthogonalLoop=1;jettySize=auto;html=1;" edge="1" parent="1" source="qMca8e3cqmEsqugtAObH-1" target="qMca8e3cqmEsqugtAObH-3">
          <mxGeometry relative="1" as="geometry" />
        </mxCell>
        <mxCell id="qMca8e3cqmEsqugtAObH-1" value="" style="rounded=0;whiteSpace=wrap;html=1;sketch=1;fillColor=#fff2cc;strokeColor=#d6b656;" vertex="1" parent="1">
          <mxGeometry x="120" y="160" width="120" height="60" as="geometry" />
        </mxCell>
        <mxCell id="qMca8e3cqmEsqugtAObH-6" value="" style="edgeStyle=orthogonalEdgeStyle;rounded=0;orthogonalLoop=1;jettySize=auto;html=1;" edge="1" parent="1" source="qMca8e3cqmEsqugtAObH-3" target="qMca8e3cqmEsqugtAObH-5">
          <mxGeometry relative="1" as="geometry" />
        </mxCell>
        <mxCell id="qMca8e3cqmEsqugtAObH-3" value="" style="whiteSpace=wrap;html=1;rounded=0;sketch=1;fillColor=#fff2cc;strokeColor=#d6b656;" vertex="1" parent="1">
          <mxGeometry x="320" y="120" width="120" height="60" as="geometry" />
        </mxCell>
        <mxCell id="qMca8e3cqmEsqugtAObH-5" value="" style="shape=parallelogram;perimeter=parallelogramPerimeter;whiteSpace=wrap;html=1;fixedSize=1;rounded=0;sketch=1;fillColor=#fff2cc;strokeColor=#d6b656;" vertex="1" parent="1">
          <mxGeometry x="320" y="300" width="120" height="60" as="geometry" />
        </mxCell>
      </root>
    </mxGraphModel>
  </diagram>
</mxfile>
